<?xml version="1.0" encoding="UTF-8" standalone="no"?>
<!-- Created with Inkscape (http://www.inkscape.org/) -->

<svg
   width="81.709984mm"
   height="73.90097mm"
   viewBox="0 0 81.709984 73.90097"
   version="1.1"
   id="svg5"
   inkscape:version="1.2.2 (732a01da63, 2022-12-09)"
   sodipodi:docname="logo.svg"
   inkscape:export-filename="logo_small.png"
   inkscape:export-xdpi="150"
   inkscape:export-ydpi="150"
   xmlns:inkscape="http://www.inkscape.org/namespaces/inkscape"
   xmlns:sodipodi="http://sodipodi.sourceforge.net/DTD/sodipodi-0.dtd"
   xmlns:xlink="http://www.w3.org/1999/xlink"
   xmlns="http://www.w3.org/2000/svg"
   xmlns:svg="http://www.w3.org/2000/svg"
   xmlns:rdf="http://www.w3.org/1999/02/22-rdf-syntax-ns#"
   xmlns:cc="http://creativecommons.org/ns#"
   xmlns:dc="http://purl.org/dc/elements/1.1/">
  <title
     id="title8207">Logo</title>
  <sodipodi:namedview
     id="namedview7"
     pagecolor="#ffffff"
     bordercolor="#000000"
     borderopacity="0.25"
     inkscape:showpageshadow="2"
     inkscape:pageopacity="0.0"
     inkscape:pagecheckerboard="true"
     inkscape:deskcolor="#d1d1d1"
     inkscape:document-units="mm"
     showgrid="false"
     inkscape:zoom="2"
     inkscape:cx="77.5"
     inkscape:cy="123"
     inkscape:window-width="1920"
     inkscape:window-height="1057"
     inkscape:window-x="-8"
     inkscape:window-y="-8"
     inkscape:window-maximized="1"
     inkscape:current-layer="layer2" />
  <defs
     id="defs2">
    <rect
       x="119"
       y="66"
       width="73.59811"
       height="65.412992"
       id="rect10537" />
    <linearGradient
       inkscape:collect="always"
       id="linearGradient10469">
      <stop
         style="stop-color:#61bb46;stop-opacity:1;"
         offset="0.25723472"
         id="stop10465" />
      <stop
         style="stop-color:#b5dfa8;stop-opacity:1;"
         offset="1"
         id="stop10467" />
    </linearGradient>
    <linearGradient
       inkscape:collect="always"
       id="linearGradient9732">
      <stop
         style="stop-color:#fbb828;stop-opacity:1;"
         offset="0.25723472"
         id="stop9728" />
      <stop
         style="stop-color:#fcd582;stop-opacity:1;"
         offset="1"
         id="stop9730" />
    </linearGradient>
    <linearGradient
       inkscape:collect="always"
       id="linearGradient8995">
      <stop
         style="stop-color:#f6821f;stop-opacity:1;"
         offset="0.25723472"
         id="stop8991" />
      <stop
         style="stop-color:#fcb075;stop-opacity:1;"
         offset="1"
         id="stop8993" />
    </linearGradient>
    <linearGradient
       inkscape:collect="always"
       id="linearGradient8256">
      <stop
         style="stop-color:#e13a3e;stop-opacity:1;"
         offset="0.25723472"
         id="stop8252" />
      <stop
         style="stop-color:#f6d2d2;stop-opacity:1;"
         offset="1"
         id="stop8254" />
    </linearGradient>
    <linearGradient
       inkscape:collect="always"
       id="linearGradient3787">
      <stop
         style="stop-color:#089eda;stop-opacity:1;"
         offset="0.3215434"
         id="stop3783" />
      <stop
         style="stop-color:#d5f2fc;stop-opacity:1;"
         offset="1"
         id="stop3785" />
    </linearGradient>
    <linearGradient
       inkscape:collect="always"
       id="linearGradient1790">
      <stop
         style="stop-color:#963d96;stop-opacity:1;"
         offset="0.25723472"
         id="stop1786" />
      <stop
         style="stop-color:#ffffff;stop-opacity:1;"
         offset="1"
         id="stop1788" />
    </linearGradient>
    <linearGradient
       inkscape:collect="always"
       xlink:href="#linearGradient3787"
       id="linearGradient1792"
       x1="58.101383"
       y1="170.76213"
       x2="140.54187"
       y2="107.89448"
       gradientUnits="userSpaceOnUse"
       gradientTransform="translate(-6.9509693,-4.3250476)" />
    <linearGradient
       inkscape:collect="always"
       xlink:href="#linearGradient1790"
       id="linearGradient3780"
       gradientUnits="userSpaceOnUse"
       gradientTransform="translate(-9.944387,-2.4541603)"
       x1="58.101383"
       y1="170.76213"
       x2="140.54187"
       y2="107.89448" />
    <linearGradient
       inkscape:collect="always"
       xlink:href="#linearGradient8256"
       id="linearGradient7523"
       gradientUnits="userSpaceOnUse"
       gradientTransform="translate(-12.93782,-0.5832655)"
       x1="58.101383"
       y1="170.76213"
       x2="140.54187"
       y2="107.89448" />
    <linearGradient
       inkscape:collect="always"
       xlink:href="#linearGradient8995"
       id="linearGradient8986"
       gradientUnits="userSpaceOnUse"
       gradientTransform="translate(-15.931232,1.2876218)"
       x1="58.101383"
       y1="170.76213"
       x2="140.54187"
       y2="107.89448" />
    <linearGradient
       inkscape:collect="always"
       xlink:href="#linearGradient9732"
       id="linearGradient9725"
       gradientUnits="userSpaceOnUse"
       gradientTransform="translate(-18.924646,3.1585163)"
       x1="58.101383"
       y1="170.76213"
       x2="140.54187"
       y2="107.89448" />
    <linearGradient
       inkscape:collect="always"
       xlink:href="#linearGradient10469"
       id="linearGradient10462"
       gradientUnits="userSpaceOnUse"
       gradientTransform="translate(-21.918063,5.0293853)"
       x1="58.101383"
       y1="170.76213"
       x2="140.54187"
       y2="107.89448" />
    <filter
       inkscape:collect="always"
       style="color-interpolation-filters:sRGB"
       id="filter10591"
       x="-0.00056261052"
       y="-0.0010508639"
       width="1.0011252"
       height="1.0021017">
      <feGaussianBlur
         inkscape:collect="always"
         stdDeviation="0.015219054"
         id="feGaussianBlur10593" />
    </filter>
  </defs>
  <g
     inkscape:groupmode="layer"
     id="layer2"
     inkscape:label="Logo"
     transform="translate(-36.161145,-103.0288)">
    <g
       id="g10481">
      <path
         id="path10460"
         style="fill:url(#linearGradient10462);stroke-width:0.264583"
         d="m 60.893305,112.38323 h 17.278569 c 13.701612,0 24.732156,11.03054 24.732156,24.73216 v 3.46005 c 0,8.795 -4.544916,16.48945 -11.423824,20.87242 -0.55591,0.36302 -1.12233,0.69301 -1.69752,0.99287 -2.63824,1.37543 1.18062,14.09088 -1.66005,14.47991 -2.81349,0.38532 -12.286161,-11.54905 -14.972778,-11.58283 -1.068104,-0.014 -2.155384,-0.0302 -3.272241,-0.0302 h -8.984312 c -13.701617,0 -24.73216,-11.03055 -24.73216,-24.73216 v -3.46005 c 0,-13.70162 11.030543,-24.73216 24.73216,-24.73216 z"
         sodipodi:nodetypes="sssscssccssss" />
      <path
         id="path9723"
         style="fill:url(#linearGradient9725);stroke-width:0.264583"
         d="m 63.886722,110.51234 h 17.278569 c 13.701612,0 24.732159,11.03054 24.732159,24.73216 v 3.46005 c 0,8.795 -4.54492,16.48945 -11.423827,20.87242 -0.55591,0.36302 -1.12233,0.69301 -1.69752,0.99287 -2.63824,1.37543 1.18062,14.09088 -1.66005,14.47991 -2.81349,0.38532 -12.28616,-11.54905 -14.972778,-11.58283 -1.068104,-0.014 -2.155384,-0.0302 -3.272241,-0.0302 h -8.984312 c -13.701617,0 -24.73216,-11.03055 -24.73216,-24.73216 v -3.46005 c 0,-13.70162 11.030543,-24.73216 24.73216,-24.73216 z"
         sodipodi:nodetypes="sssscssccssss" />
      <path
         id="path8984"
         style="fill:url(#linearGradient8986);stroke-width:0.264583"
         d="m 66.880135,108.64146 h 17.278569 c 13.701612,0 24.732166,11.03054 24.732166,24.73216 v 3.46005 c 0,8.795 -4.54492,16.48945 -11.423833,20.87242 -0.55591,0.36302 -1.122331,0.69301 -1.69752,0.99287 -2.63824,1.37543 1.18062,14.09088 -1.66005,14.47991 -2.81349,0.38532 -12.286161,-11.54905 -14.972778,-11.58283 -1.068105,-0.014 -2.155384,-0.0302 -3.272241,-0.0302 h -8.984313 c -13.701617,0 -24.73216,-11.03055 -24.73216,-24.73216 v -3.46005 c 0,-13.70162 11.030543,-24.73216 24.73216,-24.73216 z"
         sodipodi:nodetypes="sssscssccssss" />
      <path
         id="path7521"
         style="fill:url(#linearGradient7523);stroke-width:0.264583"
         d="m 69.873548,106.77057 h 17.278569 c 13.701613,0 24.732173,11.03054 24.732173,24.73216 v 3.46005 c 0,8.795 -4.54493,16.48945 -11.42384,20.87242 -0.55591,0.36302 -1.122331,0.69301 -1.697521,0.99287 -2.63824,1.37543 1.180621,14.09088 -1.66005,14.47991 -2.81349,0.38532 -12.286161,-11.54905 -14.972778,-11.58283 -1.068104,-0.014 -2.155384,-0.0302 -3.272241,-0.0302 h -8.984312 c -13.701617,0 -24.73216,-11.03055 -24.73216,-24.73216 v -3.46005 c 0,-13.70162 11.030543,-24.73216 24.73216,-24.73216 z"
         sodipodi:nodetypes="sssscssccssss" />
      <path
         id="path3776"
         style="fill:url(#linearGradient3780);stroke-width:0.264583"
         d="M 72.866981,104.89969 H 90.14555 c 13.70161,0 24.73216,11.03054 24.73216,24.73216 v 3.46005 c 0,8.795 -4.54492,16.48945 -11.42383,20.87242 -0.55591,0.36302 -1.12233,0.69301 -1.69752,0.99287 -2.638238,1.37543 1.18062,14.09088 -1.66005,14.47991 -2.813488,0.38532 -12.286159,-11.54905 -14.972776,-11.58283 -1.068104,-0.014 -2.155384,-0.0302 -3.272241,-0.0302 h -8.984312 c -13.701617,0 -24.73216,-11.03055 -24.73216,-24.73216 v -3.46005 c 0,-13.70162 11.030543,-24.73216 24.73216,-24.73216 z"
         sodipodi:nodetypes="sssscssccssss" />
      <path
         id="path1059"
         style="fill:url(#linearGradient1792);stroke-width:0.264583"
         d="m 75.860399,103.0288 h 17.278569 c 13.701612,0 24.732162,11.03054 24.732162,24.73216 v 3.46005 c 0,8.795 -4.54492,16.48945 -11.42383,20.87242 -0.55591,0.36302 -1.12233,0.69301 -1.69752,0.99287 -2.63824,1.37543 1.18062,14.09088 -1.66005,14.47991 -2.81349,0.38532 -12.286161,-11.54905 -14.972778,-11.58283 -1.068104,-0.014 -2.155384,-0.0302 -3.272241,-0.0302 h -8.984312 c -13.701617,0 -24.73216,-11.03055 -24.73216,-24.73216 v -3.46005 c 0,-13.70162 11.030543,-24.73216 24.73216,-24.73216 z"
         sodipodi:nodetypes="sssscssccssss" />
    </g>
    <text
       xml:space="preserve"
       transform="matrix(-0.00823946,0.59585105,0.59585105,0.00823946,34.584195,42.501687)"
       id="text10535"
       style="white-space:pre;shape-inside:url(#rect10537);shape-padding:0.0241167;display:inline;mix-blend-mode:normal;fill:#000000;fill-opacity:1;filter:url(#filter10591)"><tspan
         x="119.02344"
         y="109.25965"
         id="tspan10833"><tspan
           style="font-weight:bold;font-size:48px;font-family:'Segoe UI';-inkscape-font-specification:'Segoe UI, Bold';fill:#ffffff"
           id="tspan10831">:-L</tspan></tspan></text>
  </g>
  <metadata
     id="metadata8205">
    <rdf:RDF>
      <cc:Work
         rdf:about="">
        <dc:title>Logo</dc:title>
      </cc:Work>
    </rdf:RDF>
  </metadata>
</svg>
